# File created by Blade
# Date/Time:  Wed Jan 21 17:16:23 2015
# Frame Rate: 120.000 fps
#------------------------------------------------------
:FULLY-SPECIFIED
:DEGREES
1278
root 20.993304 5.265765 -15.070920 -193.076215 -10.900997 -210.661947
Spine 30.779783 6.507856 -35.898603
Head 23.891432 18.155750 -5.031302
LeftShoulder -8.685237 -21.079472 -0.937942
LeftArm -40.488399 -2.057631 -51.341167
LeftForeArm -20.833105 -0.000000 52.323519
LeftHand -12.989678 -0.000000 -5.944507
LeftHandThumb1 -26.253704 0.000000 33.147579
RightShoulder -3.882223 -13.359504 -0.044699
RightArm 16.153940 -24.307366 70.287708
RightForeArm -33.300691 -0.000000 35.653379
RightHand -6.901331 -0.000000 -3.984167
RightHandThumb1 -24.326973 -0.000000 -32.862282
LeftUpLeg -10.806806 23.474645 30.397055
LeftLeg 151.545469 -0.000000 -0.000000
LeftFoot 48.897939 5.607803 19.846075
LeftToeBase 22.702181 -0.000000 -0.000000
RightUpLeg -107.616840 -11.831878 49.525173
RightLeg 125.827450 -0.000000 -0.000000
RightFoot 29.919508 -17.387581 9.361322
RightToeBase 42.744603 -0.000000 -0.000000
1279
root 21.009455 5.270245 -15.094544 -192.796643 -10.740070 -210.617491
Spine 30.269533 6.413786 -35.988963
Head 23.721230 18.044750 -4.791172
LeftShoulder -8.788198 -21.234299 -0.788124
LeftArm -40.593187 -2.410030 -50.756091
LeftForeArm -19.628303 -0.000000 52.097735
LeftHand -13.001936 -0.000000 -6.774580
LeftHandThumb1 -26.253704 0.000000 33.147579
RightShoulder -3.950067 -13.235978 0.093478
RightArm 16.051374 -24.355159 70.357628
RightForeArm -33.573447 -0.000000 35.628657
RightHand -7.170866 -0.000000 -3.325537
RightHandThumb1 -24.326973 -0.000000 -32.862282
LeftUpLeg -10.869142 23.580597 30.499540
LeftLeg 151.448037 -0.000000 -0.000000
LeftFoot 48.816901 5.366949 19.870121
LeftToeBase 22.793834 -0.000000 -0.000000
RightUpLeg -107.588741 -11.663762 49.777982
RightLeg 125.737525 -0.000000 -0.000000
RightFoot 30.044600 -17.568713 9.382665
RightToeBase 42.913963 -0.000000 -0.000000
1280
root 21.023213 5.273660 -15.118418 -192.523333 -10.590157 -210.577356
Spine 29.778452 6.275176 -36.100303
Head 23.515137 17.952626 -4.576626
LeftShoulder -8.960829 -21.397924 -0.588037
LeftArm -40.649252 -2.929611 -50.104545
LeftForeArm -17.986698 0.000000 51.860931
LeftHand -13.135705 -0.000000 -7.846068
LeftHandThumb1 -26.253704 0.000000 33.147579
RightShoulder -3.975901 -13.110336 0.177150
RightArm 15.959042 -24.358947 70.485946
RightForeArm -34.103865 -0.000000 35.554991
RightHand -7.315423 -0.000000 -2.756265
RightHandThumb1 -24.326973 -0.000000 -32.862282
LeftUpLeg -10.924050 23.700513 30.594544
LeftLeg 151.370452 -0.000000 -0.000000
LeftFoot 48.647677 5.154960 19.961233
LeftToeBase 23.027676 -0.000000 -0.000000
RightUpLeg -107.575850 -11.533689 49.994696
RightLeg 125.651575 -0.000000 -0.000000
RightFoot 30.186383 -17.687079 9.461962
RightToeBase 43.169174 -0.000000 -0.000000
1281
root 21.040735 5.276124 -15.142657 -192.237121 -10.426314 -210.512509
Spine 29.279778 6.211622 -36.156339
Head 23.299795 17.808087 -4.331789
LeftShoulder -9.082102 -21.533721 -0.426206
LeftArm -40.648091 -3.369230 -49.446698
LeftForeArm -16.545607 -0.000000 51.724792
LeftHand -13.341761 -0.000000 -8.801474
LeftHandThumb1 -26.253704 0.000000 33.147579
RightShoulder -4.096043 -12.980343 0.334119
RightArm 15.834631 -24.420946 70.532707
RightForeArm -34.553660 -0.000000 35.618848
RightHand -7.662635 -0.000000 -2.062098
RightHandThumb1 -24.326973 -0.000000 -32.862282
LeftUpLeg -10.988567 23.816014 30.726119
LeftLeg 151.283297 -0.000000 -0.000000
LeftFoot 48.530503 4.967142 19.993005
LeftToeBase 23.200460 -0.000000 -0.000000
RightUpLeg -107.560924 -11.341638 50.279685
RightLeg 125.587887 -0.000000 -0.000000
RightFoot 30.142981 -17.921280 9.548989
RightToeBase 43.188972 -0.000000 -0.000000
1282
root 21.055059 5.280999 -15.169413 -191.930859 -10.257878 -210.477083
Spine 28.736924 6.123886 -36.258383
Head 23.143015 17.662161 -4.054900
LeftShoulder -9.235174 -21.670959 -0.242493
LeftArm -40.633876 -3.838973 -48.763914
LeftForeArm -14.730340 -0.000000 51.611053
LeftHand -13.493021 0.000000 -9.875071
LeftHandThumb1 -26.253704 0.000000 33.147579
RightShoulder -4.216024 -12.868460 0.475861
RightArm 15.727358 -24.440758 70.621056
RightForeArm -35.076510 -0.000000 35.616503
RightHand -7.816484 -0.000000 -1.433529
RightHandThumb1 -24.326973 -0.000000 -32.862282
LeftUpLeg -11.050407 23.958562 30.799656
LeftLeg 151.195589 -0.000000 -0.000000
LeftFoot 48.388268 4.762722 20.037706
LeftToeBase 23.214222 -0.000000 -0.000000
RightUpLeg -107.560319 -11.155379 50.548015
RightLeg 125.524656 -0.000000 -0.000000
RightFoot 30.187794 -18.139531 9.617559
RightToeBase 43.261685 -0.000000 -0.000000
1283
root 21.066504 5.284340 -15.195626 -191.621106 -10.095049 -210.437037
Spine 28.197106 6.009718 -36.354399
Head 22.968220 17.487898 -3.809864
LeftShoulder -9.430244 -21.877337 -0.035177
LeftArm -40.678957 -4.178950 -48.143986
LeftForeArm -13.083504 0.000000 51.669035
LeftHand -13.700292 -0.000000 -10.490842
LeftHandThumb1 -26.253704 0.000000 33.147579
RightShoulder -4.337661 -12.714615 0.597636
RightArm 15.587704 -24.516667 70.724672
RightForeArm -35.522216 -0.000000 35.657178
RightHand -8.036897 -0.000000 -0.885876
RightHandThumb1 -24.326973 -0.000000 -32.862282
LeftUpLeg -11.117615 24.104743 30.895032
LeftLeg 151.092116 -0.000000 -0.000000
LeftFoot 48.328801 4.637645 20.012881
LeftToeBase 23.263190 -0.000000 -0.000000
RightUpLeg -107.573038 -10.956989 50.787626
RightLeg 125.481995 -0.000000 -0.000000
RightFoot 30.252776 -18.292571 9.678825
RightToeBase 43.154233 -0.000000 -0.000000
1284
root 21.080303 5.288075 -15.222574 -191.312751 -9.919891 -210.390343
Spine 27.645097 5.943215 -36.443160
Head 22.804770 17.289979 -3.514603
LeftShoulder -9.570210 -22.002891 0.154831
LeftArm -40.620082 -4.642200 -47.471251
LeftForeArm -10.987928 0.000000 51.730311
LeftHand -13.866481 0.000000 -11.185367
LeftHandThumb1 -26.253704 0.000000 33.147579
RightShoulder -4.495992 -12.665719 0.804714
RightArm 15.482155 -24.431082 70.762950
RightForeArm -36.220101 -0.000000 35.861186
RightHand -8.309451 0.000000 -0.037918
RightHandThumb1 -24.326973 -0.000000 -32.862282
LeftUpLeg -11.184840 24.295371 30.994142
LeftLeg 150.967116 -0.000000 -0.000000
LeftFoot 48.388085 4.627759 19.999394
LeftToeBase 23.189529 -0.000000 -0.000000
RightUpLeg -107.565320 -10.762225 51.038262
RightLeg 125.445993 -0.000000 -0.000000
RightFoot 30.331142 -18.416886 9.667379
RightToeBase 43.241452 -0.000000 -0.000000
1285
root 21.091063 5.291584 -15.249502 -190.981356 -9.768075 -210.341719
Spine 27.080875 5.840581 -36.524428
Head 22.662252 17.075100 -3.230873
LeftShoulder -9.745556 -22.199457 0.358855
LeftArm -40.630461 -4.982413 -46.825467
LeftForeArm -8.639828 0.000000 51.998381
LeftHand -14.204297 -0.000000 -11.667541
LeftHandThumb1 -26.253704 0.000000 33.147579
RightShoulder -4.662560 -12.550385 1.005167
RightArm 15.322912 -24.446348 70.775117
RightForeArm -36.726922 -0.000000 36.045137
RightHand -8.469313 -0.000000 0.647785
RightHandThumb1 -24.326973 -0.000000 -32.862282
LeftUpLeg -11.279309 24.422408 31.082464
LeftLeg 150.846436 -0.000000 -0.000000
LeftFoot 48.414497 4.481601 19.911355
LeftToeBase 23.117794 -0.000000 -0.000000
RightUpLeg -107.605747 -10.548959 51.297252
RightLeg 125.414894 -0.000000 -0.000000
RightFoot 30.450447 -18.590523 9.654106
RightToeBase 43.372730 -0.000000 -0.000000
1286
root 21.101561 5.295857 -15.275717 -190.646371 -9.597060 -210.290572
Spine 26.513585 5.745410 -36.575127
Head 22.498942 16.842279 -3.027167
LeftShoulder -9.869817 -22.392350 0.514344
LeftArm -40.625342 -5.289212 -46.179423
LeftForeArm -6.273035 -0.000000 52.310619
LeftHand -14.422311 0.000000 -11.944752
LeftHandThumb1 -26.253704 0.000000 33.147579
RightShoulder -4.703755 -12.281363 1.116684
RightArm 14.836119 -24.280650 71.048532
RightForeArm -37.552193 -0.000000 36.366573
RightHand -8.809433 -0.000000 1.499737
RightHandThumb1 -24.326973 -0.000000 -32.862282
LeftUpLeg -11.367390 24.585973 31.167669
LeftLeg 150.737246 -0.000000 -0.000000
LeftFoot 48.370747 4.350958 19.876850
LeftToeBase 23.142333 -0.000000 -0.000000
RightUpLeg -107.627361 -10.322826 51.569373
RightLeg 125.394230 -0.000000 -0.000000
RightFoot 30.671782 -18.715708 9.562066
RightToeBase 43.201362 -0.000000 -0.000000
1287
root 21.110123 5.300452 -15.305289 -190.333131 -9.421353 -210.235907
Spine 25.945233 5.672828 -36.649482
Head 22.353538 16.592784 -2.720391
LeftShoulder -9.975793 -22.618165 0.725788
LeftArm -40.691213 -5.633057 -45.573526
LeftForeArm -3.674113 -0.000000 52.760695
LeftHand -14.677356 0.000000 -11.776530
LeftHandThumb1 -26.253704 0.000000 33.147579
RightShoulder -4.852347 -12.226792 1.338941
RightArm 14.640981 -24.135378 71.083147
RightForeArm -38.191899 -0.000000 36.667930
RightHand -8.896918 -0.000000 2.234001
RightHandThumb1 -24.326973 -0.000000 -32.862282
LeftUpLeg -11.410480 24.766040 31.286021
LeftLeg 150.612390 -0.000000 -0.000000
LeftFoot 48.416624 4.311111 19.853208
LeftToeBase 22.973074 -0.000000 -0.000000
RightUpLeg -107.646907 -10.097191 51.812486
RightLeg 125.422335 -0.000000 -0.000000
RightFoot 30.789617 -18.857215 9.627105
RightToeBase 43.314536 -0.000000 -0.000000
